<?xml version="1.0" standalone="no"?>
<!DOCTYPE svg PUBLIC "-//W3C//DTD SVG 20010904//EN"
 "http://www.w3.org/TR/2001/REC-SVG-20010904/DTD/svg10.dtd">
<svg version="1.0" xmlns="http://www.w3.org/2000/svg"
 width="1563.000000pt" height="1563.000000pt" viewBox="0 0 1563.000000 1563.000000"
 preserveAspectRatio="xMidYMid meet">

<g transform="translate(0.000000,1563.000000) scale(0.100000,-0.100000)"
fill="#000000" stroke="none">
<path d="M11468 7667 c-88 -25 -160 -86 -206 -172 -23 -43 -26 -62 -26 -140 0
-74 4 -99 23 -137 32 -66 92 -125 159 -156 49 -23 70 -27 152 -27 99 0 163 15
228 55 l32 20 0 125 0 125 -65 0 -65 0 0 -89 c0 -87 0 -89 -27 -99 -79 -31
-160 -22 -222 25 -94 71 -93 244 1 316 41 32 115 49 168 41 22 -4 61 -20 87
-36 l46 -29 43 42 c41 40 43 44 27 61 -9 10 -45 32 -79 49 -51 25 -78 32 -146
35 -51 2 -101 -1 -130 -9z"/>
<path d="M6460 7610 l0 -60 100 0 100 0 0 -255 0 -255 75 0 75 0 0 255 0 255
100 0 100 0 0 60 0 60 -275 0 -275 0 0 -60z"/>
<path d="M7260 7356 l0 -316 75 0 75 0 0 90 0 91 67 -3 68 -3 60 -87 60 -88
78 0 79 0 -66 95 c-36 52 -66 98 -66 102 1 5 18 20 39 34 92 64 108 225 30
313 -16 19 -51 44 -77 57 -43 21 -63 24 -234 27 l-188 4 0 -316z m345 180 c40
-17 55 -42 55 -93 0 -78 -54 -113 -175 -113 l-75 0 0 110 0 110 80 0 c47 0 95
-6 115 -14z"/>
<path d="M8162 7355 l-140 -316 76 3 76 3 26 65 26 65 146 3 146 3 28 -71 27
-70 78 0 77 0 -141 315 -141 315 -72 0 -71 0 -141 -315z m259 59 c22 -54 43
-105 46 -111 4 -10 -18 -13 -91 -13 -53 0 -96 3 -96 6 0 3 16 44 36 92 20 48
40 98 45 111 5 13 12 22 14 19 3 -3 23 -49 46 -104z"/>
<path d="M8970 7356 l0 -316 165 0 c230 0 304 19 383 98 67 67 98 168 82 269
-18 109 -86 194 -188 234 -50 20 -79 23 -249 27 l-193 4 0 -316z m375 175 c67
-30 115 -104 115 -176 0 -39 -21 -95 -47 -126 -43 -51 -94 -69 -200 -69 l-93
0 0 195 0 195 93 0 c68 0 103 -5 132 -19z"/>
<path d="M9890 7355 l0 -315 75 0 75 0 0 315 0 315 -75 0 -75 0 0 -315z"/>
<path d="M10360 7355 l0 -315 75 0 75 0 2 188 3 187 154 -187 153 -188 59 0
59 0 0 315 0 315 -70 0 -70 0 -2 -190 -3 -189 -155 189 -154 190 -63 0 -63 0
0 -315z"/>
</g>
</svg>
