<?xml version="1.0" standalone="no"?>
<!DOCTYPE svg PUBLIC "-//W3C//DTD SVG 20010904//EN"
 "http://www.w3.org/TR/2001/REC-SVG-20010904/DTD/svg10.dtd">
<svg version="1.0" xmlns="http://www.w3.org/2000/svg"
 width="1563.000000pt" height="1563.000000pt" viewBox="0 0 1563.000000 1563.000000"
 preserveAspectRatio="xMidYMid meet">

<g transform="translate(0.000000,1563.000000) scale(0.100000,-0.100000)"
fill="#000000" stroke="none">
<path d="M7400 9435 c0 -12 -21 -15 -122 -16 l-123 0 -660 -729 -660 -729 -3
729 -2 730 -670 0 -670 0 0 -2020 0 -2020 670 0 670 0 0 499 0 500 151 165
c82 91 153 166 157 166 7 0 994 -1304 1000 -1321 2 -5 323 -9 793 -9 524 0
788 3 784 10 -3 6 1 10 9 10 14 0 16 54 16 499 l0 499 153 170 c97 108 156
166 162 160 6 -5 233 -305 506 -666 l496 -657 791 -3 792 -2 -482 642 c-265
354 -647 864 -849 1134 l-367 492 167 184 c91 101 450 496 796 878 347 382
634 701 638 708 7 9 -142 12 -731 12 l-740 0 -650 -718 c-357 -395 -657 -724
-666 -731 -15 -12 -16 44 -16 718 l0 731 -670 0 c-589 0 -670 -2 -670 -15z
m-2 -2052 l-3 -228 -183 243 c-162 215 -181 245 -170 261 7 9 90 101 183 204
l170 186 3 -219 c1 -120 1 -321 0 -447z"/>
</g>
</svg>
