<?xml version="1.0" encoding="UTF-8"?>
<svg version="1.1" xmlns="http://www.w3.org/2000/svg" width="1200" height="1200">
<path d="M0 0 C396 0 792 0 1200 0 C1200 396 1200 792 1200 1200 C804 1200 408 1200 0 1200 C0 804 0 408 0 0 Z " fill="#F4F30F" transform="translate(0,0)"/>
<path d="M0 0 C125.07 0 250.14 0 379 0 C379 125.07 379 250.14 379 379 C253.93 379 128.86 379 0 379 C0 253.93 0 128.86 0 0 Z " fill="#010100" transform="translate(620,361)"/>
<path d="M0 0 C0.9685462 -0.00865438 1.93709241 -0.01730876 2.9349885 -0.02622539 C6.18359365 -0.04783323 9.43048993 -0.02651111 12.67907715 -0.00532532 C15.00665608 -0.01181765 17.33422907 -0.02087803 19.66178894 -0.03231812 C25.98621425 -0.05542664 32.31003717 -0.04066338 38.63444328 -0.01784873 C44.57776325 -0.00087123 50.52101706 -0.008529 56.46435028 -0.01483283 C68.95303162 -0.02676897 81.44144258 -0.00270543 93.93006235 0.03418525 C104.64516176 0.06507822 115.3599499 0.06744929 126.07507324 0.04838562 C138.51911587 0.02627145 150.96298401 0.02013111 163.40703535 0.04070824 C169.99397287 0.05137544 176.58074077 0.05566531 183.16767883 0.04313087 C189.35990015 0.03259388 195.55158644 0.0466668 201.74372292 0.07987404 C204.01854307 0.08809469 206.29341213 0.0877816 208.56822777 0.07839584 C211.66937874 0.06700435 214.7688558 0.08629307 217.86987305 0.11352539 C218.77405299 0.1030539 219.67823293 0.09258241 220.60981226 0.08179361 C225.03443989 0.15437598 226.87665467 0.32806965 230.49517345 3.09634972 C232.96155526 6.47700625 233.04116624 8.40360882 233.00256348 12.56498718 C233.00329361 13.22896011 233.00402374 13.89293304 233.004776 14.57702637 C233.00130938 16.75835125 232.96249965 18.93750514 232.92321777 21.11845398 C232.91388617 22.63587274 232.90677169 24.15330661 232.90177917 25.67074585 C232.88273619 29.65449498 232.83366035 33.63732499 232.77825928 37.62071228 C232.7270075 41.6894945 232.70425259 45.75842601 232.67907715 49.82743835 C232.62553751 57.80377046 232.54025919 65.77935709 232.43493652 73.75517273 C233.22785095 73.74629028 234.02076538 73.73740784 234.83770752 73.72825623 C242.31222836 73.64808938 249.7865406 73.58719811 257.26137924 73.54792404 C261.10424904 73.52705389 264.94676345 73.49874767 268.78942871 73.45341492 C272.49824768 73.40993528 276.20672494 73.38603131 279.91577911 73.37566376 C281.33039987 73.36827606 282.74500205 73.3538493 284.15947723 73.3322525 C286.14141075 73.30319658 288.12368852 73.30153865 290.10583496 73.30107117 C291.23390564 73.29218872 292.36197632 73.28330627 293.52423096 73.27415466 C297.10581388 73.86604074 298.24283944 74.91582469 300.43493652 77.75517273 C301.74307412 81.67958553 301.58644546 85.4190122 301.58883667 89.51026917 C301.59321892 90.41585323 301.59760118 91.3214373 301.60211623 92.25446332 C301.61551481 95.3014141 301.62168542 98.34833596 301.62780762 101.39530945 C301.63570758 103.57480501 301.64397646 105.75429925 301.65258789 107.93379211 C301.67881435 115.1008021 301.69411346 122.26781795 301.70837402 129.43486023 C301.71373294 131.89974598 301.71911044 134.36463169 301.72450638 136.82951736 C301.7461336 147.07904745 301.76487226 157.32857596 301.77612877 167.57812309 C301.79091013 180.95022729 301.8151167 194.32212297 301.86706543 207.69413757 C301.91222638 219.35657757 301.94007295 231.01889647 301.94604933 242.68142521 C301.94970917 248.85597768 301.96179827 255.03024894 301.99415207 261.20472336 C302.02414143 267.01107754 302.03057704 272.81697899 302.01876831 278.62339401 C302.01854683 280.75633936 302.02691312 282.88930516 302.04442215 285.02217865 C302.06700234 287.93070561 302.05887057 290.83757532 302.04293823 293.74610901 C302.05682032 294.59328896 302.07070241 295.44046892 302.08500516 296.31332099 C302.0268816 300.60949055 301.8229491 302.25984941 299.08443642 305.75573921 C295.1381271 308.7338043 292.30599602 308.87861821 287.49475098 308.86869812 C286.2737117 308.86862259 285.05267242 308.86854706 283.79463196 308.86846924 C282.47581528 308.86330795 281.1569986 308.85814667 279.79821777 308.85282898 C278.43487093 308.85096353 277.07152341 308.84954023 275.70817566 308.84854126 C272.12265161 308.84472605 268.53716818 308.83490428 264.95166016 308.82383728 C261.29179432 308.81360174 257.63192192 308.80903905 253.9720459 308.80400085 C246.79299094 308.79328111 239.61396943 308.77621666 232.43493652 308.75517273 C232.44603958 309.60850693 232.45714264 310.46184113 232.46858215 311.34103394 C232.56883301 319.38911907 232.64492609 327.43699405 232.69399738 335.48556042 C232.72007399 339.62330991 232.75543537 343.76054281 232.81213379 347.897995 C232.86652463 351.89212419 232.89637163 355.88575704 232.90932274 359.88022804 C232.91855011 361.40289943 232.93656969 362.92554412 232.96358681 364.44800377 C232.99997489 366.58378316 233.00487835 368.71752111 233.00256348 370.8535614 C233.01366653 372.06823593 233.02476959 373.28291046 233.03620911 374.53439331 C232.26092286 378.68729509 230.68421157 380.14407569 227.43493652 382.75517273 C223.4125965 384.09595274 219.53927055 383.8997167 215.34489441 383.89561462 C214.40326393 383.89858575 213.46163346 383.90155687 212.49146873 383.90461802 C209.32246928 383.91331981 206.15350754 383.91481452 202.98449707 383.91630554 C200.71795572 383.92093265 198.45141515 383.92595716 196.18487549 383.93135071 C190.01749188 383.94448661 183.85011917 383.95092193 177.68272376 383.95536137 C173.83177846 383.95829003 169.98083615 383.96239443 166.12989235 383.96686554 C155.46774096 383.97897561 144.80559321 383.98935738 134.14343548 383.99274063 C133.46103201 383.9929602 132.77862855 383.99317976 132.07554619 383.99340598 C131.0494923 383.9937334 131.0494923 383.9937334 130.00271004 383.99406743 C128.61659348 383.9945109 127.23047691 383.99495746 125.84436035 383.9954071 C124.81301788 383.99573925 124.81301788 383.99573925 123.76084021 383.9960781 C112.61999576 384.00002608 101.47921671 384.01748017 90.33839753 384.04076663 C78.90028144 384.06448151 67.46221289 384.07668456 56.02406913 384.07810855 C49.60196749 384.07915793 43.1799581 384.08509421 36.75787926 384.10292816 C30.71768229 384.11937503 24.67764725 384.12158076 18.63743591 384.11278915 C16.4194578 384.11201698 14.20147111 384.11638514 11.98351479 384.12624741 C8.95745893 384.1389147 5.93198108 384.1331183 2.90592957 384.12266541 C2.02664392 384.13072181 1.14735827 384.13877821 0.2414276 384.14707875 C-4.76147223 384.10661493 -8.24254214 383.56175045 -12.56506348 380.75517273 C-14.84524807 376.95552131 -14.80854334 373.39907517 -14.79211426 369.03715515 C-14.79240631 368.38293579 -14.79269836 367.72871643 -14.79299927 367.05467224 C-14.79161329 364.90652394 -14.77608718 362.75872869 -14.76037598 360.61064148 C-14.75664323 359.11563303 -14.75379749 357.62062213 -14.75180054 356.12561035 C-14.74418466 352.20140259 -14.72455389 348.27734417 -14.70239258 344.35319519 C-14.68188997 340.34463013 -14.6727894 336.3360408 -14.66271973 332.32743835 C-14.64130593 324.46994814 -14.60719485 316.61257904 -14.56506348 308.75517273 C-15.71351997 308.76516548 -15.71351997 308.76516548 -16.88517761 308.77536011 C-24.10922763 308.83553234 -31.33315572 308.88117801 -38.55739117 308.91060925 C-42.27123922 308.92624896 -45.98487976 308.94745582 -49.6986084 308.98149109 C-53.28422389 309.01414568 -56.86964009 309.03203849 -60.45539284 309.03980446 C-61.82171578 309.04533708 -63.18802813 309.05614109 -64.55426598 309.0723629 C-66.47141205 309.09421548 -68.38875969 309.0953988 -70.30603027 309.0957489 C-71.39635056 309.10241074 -72.48667084 309.10907257 -73.61003113 309.11593628 C-77.05770561 308.69502878 -78.85878737 307.92524033 -81.56506348 305.75517273 C-84.04764683 301.2225762 -83.84564214 296.81673872 -83.81903076 291.790802 C-83.82215074 290.88688707 -83.82527072 289.98297214 -83.82848525 289.05166584 C-83.83646354 286.02234858 -83.83014223 282.99323172 -83.82385254 279.96391296 C-83.82656245 277.79235212 -83.83012339 275.62079219 -83.83447266 273.44923401 C-83.8435983 267.55066642 -83.84005179 261.65216871 -83.83371449 255.75359988 C-83.82865607 249.58550752 -83.83334544 243.4174212 -83.83648682 237.24932861 C-83.84012664 226.89164657 -83.83532662 216.53399303 -83.82580566 206.17631531 C-83.81491822 194.19351269 -83.81844874 182.21080811 -83.82945848 170.22800487 C-83.83852743 159.94681669 -83.83981863 149.66564901 -83.83458114 139.38445812 C-83.83145966 133.24081593 -83.83105705 127.09720575 -83.83765411 120.9535656 C-83.84342134 115.17929643 -83.83944207 109.40511521 -83.8278656 103.63085556 C-83.82521581 101.508795 -83.82598953 99.38672707 -83.83039093 97.26466942 C-83.83583509 94.37386548 -83.82902594 91.48334553 -83.81903076 88.59255981 C-83.82349221 87.74772221 -83.82795365 86.9028846 -83.83255029 86.03244585 C-83.78347963 78.74347623 -83.78347963 78.74347623 -81.56506348 75.75517273 C-77.38554868 73.11095989 -74.18692494 72.38408231 -69.28430176 72.41459656 C-68.06348907 72.41482315 -66.84267639 72.41504974 -65.58486938 72.4152832 C-63.62987015 72.43850899 -63.62987015 72.43850899 -61.63537598 72.46220398 C-60.27632111 72.4678057 -58.91726014 72.47207307 -57.55819702 72.47506714 C-53.99722293 72.48647079 -50.43662132 72.51589844 -46.87579346 72.54917908 C-43.23580971 72.5799773 -39.59576523 72.59359321 -35.95568848 72.60868835 C-28.82532862 72.64077317 -21.69522049 72.69191447 -14.56506348 72.75517273 C-14.57616653 71.94164337 -14.58726959 71.12811401 -14.59870911 70.28993225 C-14.69904025 62.61002728 -14.77509321 54.93044163 -14.82412434 47.2500515 C-14.85017974 43.30176633 -14.88550173 39.35402426 -14.94226074 35.40605164 C-14.99672815 31.59346329 -15.02651452 27.78139613 -15.03944969 23.96844864 C-15.04866342 22.51637699 -15.06665637 21.06433275 -15.09371376 19.61248398 C-15.13020466 17.57267675 -15.13500117 15.53500175 -15.13269043 13.49491882 C-15.14379349 12.33575958 -15.15489655 11.17660034 -15.16633606 9.98231506 C-13.47773405 0.91927248 -8.07394565 -0.12560747 0 0 Z " fill="#030300" transform="translate(263.5650634765625,358.2448272705078)"/>
<path d="M0 0 C69.63 0 139.26 0 211 0 C211 37.95 211 75.9 211 115 C141.37 115 71.74 115 0 115 C0 77.05 0 39.1 0 0 Z " fill="#F3F20F" transform="translate(267,609)"/>
<path d="M0 0 C69.63 0 139.26 0 211 0 C211 37.95 211 75.9 211 115 C141.37 115 71.74 115 0 115 C0 77.05 0 39.1 0 0 Z " fill="#F4F310" transform="translate(267,377)"/>
<path d="M0 0 C26.4 0 52.8 0 80 0 C80 11.22 80 22.44 80 34 C77.36 34.99 74.72 35.98 72 37 C70.80658248 37.97332261 70.80658248 37.97332261 70.88647461 39.76586914 C70.89171143 40.51473389 70.89694824 41.26359863 70.90234375 42.03515625 C70.90556641 42.84404297 70.90878906 43.65292969 70.91210938 44.48632812 C70.92048828 45.33646484 70.92886719 46.18660156 70.9375 47.0625 C70.94201172 47.91650391 70.94652344 48.77050781 70.95117188 49.65039062 C70.96299627 51.76695663 70.98093231 53.88348685 71 56 C71.56509277 55.63648438 72.13018555 55.27296875 72.71240234 54.8984375 C75.26363408 53.26094665 77.81923336 51.63040286 80.375 50 C81.26445313 49.42765625 82.15390625 48.8553125 83.0703125 48.265625 C83.92109375 47.72421875 84.771875 47.1828125 85.6484375 46.625 C86.43395996 46.12226562 87.21948242 45.61953125 88.02880859 45.1015625 C90 44 90 44 92 44 C92.67801034 41.09926819 92.67801034 41.09926819 93 38 C90.9714169 35.62841973 90.9714169 35.62841973 87 35 C87 23.45 87 11.9 87 0 C111.75 0 136.5 0 162 0 C162 11.55 162 23.1 162 35 C157.71 35.66 153.42 36.32 149 37 C145.26873582 38.70305558 141.97586106 40.34816972 138.5 42.4375 C137.64664063 42.92798828 136.79328125 43.41847656 135.9140625 43.92382812 C133.59607639 45.26154441 131.29500059 46.62332319 129 48 C127.46859375 48.91458984 127.46859375 48.91458984 125.90625 49.84765625 C124.96265625 50.41806641 124.96265625 50.41806641 124 51 C124.58798572 54.82629513 126.31503918 56.85204546 128.8125 59.75 C132.6612778 64.33071653 136.30901562 69.00883125 139.875 73.8125 C143.84169887 79.12996923 147.81746778 84.43884947 151.875 89.6875 C152.30280762 90.25122314 152.73061523 90.81494629 153.17138672 91.39575195 C158.63163191 98.40804589 162.15844971 100.78961243 171 103 C171 114.22 171 125.44 171 137 C143.28 137 115.56 137 87 137 C87 125.78 87 114.56 87 103 C89.31 102.01 91.62 101.02 94 100 C93.64102809 94.16853792 91.92519055 90.9539942 88.0625 86.75 C83.05854127 81.0878119 83.05854127 81.0878119 81 78 C75.43368003 79.55638443 75.43368003 79.55638443 71 83 C70.49484171 86.07252818 70.62520948 89.08453583 70.75 92.1875 C70.76804687 93.03248047 70.78609375 93.87746094 70.8046875 94.74804688 C70.85179414 96.83251573 70.92353767 98.91640144 71 101 C73.97 101.66 76.94 102.32 80 103 C80 114.22 80 125.44 80 137 C53.6 137 27.2 137 0 137 C0 125.78 0 114.56 0 103 C3.63 102.01 7.26 101.02 11 100 C14.09341569 95.87544575 14.37852764 95.25701365 14.41992188 90.46875 C14.44378967 88.80682617 14.44378967 88.80682617 14.46813965 87.11132812 C14.46834106 85.91958984 14.46854248 84.72785156 14.46875 83.5 C14.47636353 82.27216797 14.48397705 81.04433594 14.49182129 79.77929688 C14.50262564 77.18361444 14.50547406 74.58788852 14.50097656 71.9921875 C14.50000364 68.01489076 14.54163903 64.03951845 14.5859375 60.0625 C14.59114384 57.5416707 14.5938327 55.02083468 14.59375 52.5 C14.61014526 51.30826172 14.62654053 50.11652344 14.64343262 48.88867188 C14.7019007 42.67245247 14.7019007 42.67245247 12.02539062 37.28125 C8.15449458 35.47191647 8.15449458 35.47191647 0 35 C0 23.45 0 11.9 0 0 Z " fill="#F4F30F" transform="translate(648,480)"/>
<path d="M0 0 C115.17 0 230.34 0 349 0 C349 30.03 349 60.06 349 91 C332.17 91 315.34 91 298 91 C297.93941406 87.20886719 297.87882812 83.41773438 297.81640625 79.51171875 C297.75463341 75.84804251 297.69123883 72.18439769 297.62768555 68.52075195 C297.58432033 65.97065006 297.54264644 63.42051884 297.50268555 60.87036133 C297.44502161 57.20905711 297.38131575 53.54790078 297.31640625 49.88671875 C297.29133751 48.17097908 297.29133751 48.17097908 297.26576233 46.420578 C297.24581711 45.35970474 297.22587189 44.29883148 297.20532227 43.20581055 C297.18977798 42.27093307 297.1742337 41.3360556 297.15821838 40.37284851 C297.09027292 37.85013487 297.09027292 37.85013487 296 35 C293.28991093 34.09663698 291.72333359 33.87203517 288.94071293 33.86298561 C287.69710628 33.8553738 287.69710628 33.8553738 286.42837626 33.84760821 C285.51768851 33.84711045 284.60700077 33.84661269 283.66871643 33.84609985 C282.70117351 33.8417176 281.73363059 33.83733535 280.73676819 33.8328203 C277.48019053 33.81941783 274.22363993 33.81325025 270.96704102 33.80712891 C268.63814165 33.7992293 266.30924352 33.79096044 263.98034668 33.78234863 C256.32154511 33.75611985 248.66273804 33.74082366 241.00390625 33.7265625 C238.37059971 33.72120384 235.73729321 33.71582634 233.10398674 33.71043015 C222.15531812 33.68880333 211.20665081 33.66991278 200.25796604 33.65880775 C197.41733865 33.65587803 194.57671129 33.65291636 191.73608398 33.64990234 C191.03005403 33.64915629 190.32402408 33.64841024 189.59659927 33.64764158 C178.15043133 33.63497842 166.70441839 33.60174111 155.25832296 33.56010051 C143.5105987 33.5177122 131.7629539 33.49411657 120.01515335 33.48888719 C113.41754298 33.4852254 106.8201956 33.47311545 100.22265816 33.44078445 C94.01988068 33.41082288 87.81752698 33.4043495 81.61469269 33.41616821 C79.3345857 33.41638992 77.0544597 33.40800503 74.77441978 33.39051437 C71.66851831 33.36797947 68.56417412 33.37604514 65.45826721 33.39199829 C64.09558168 33.37117516 64.09558168 33.37117516 62.70536715 33.34993136 C57.54844841 33.3870542 57.54844841 33.3870542 53.44129467 36.377038 C51.84014854 39.29090811 51.48628049 41.03467922 51.45410156 44.34106445 C51.43438293 45.3817659 51.41466431 46.42246735 51.39434814 47.4947052 C51.39311951 48.6063353 51.39189087 49.71796539 51.390625 50.86328125 C51.37408875 52.01040085 51.35755249 53.15752045 51.34051514 54.33940125 C51.29199609 57.99715509 51.27065449 61.65449303 51.25 65.3125 C51.22184375 67.79494284 51.19191682 70.27736628 51.16015625 72.75976562 C51.08290775 78.84003583 51.04242073 84.91898809 51 91 C34.17 91 17.34 91 0 91 C0 60.97 0 30.94 0 0 Z " fill="#F3F20F" transform="translate(198,558)"/>
<path d="M0 0 C16.83 0 33.66 0 51 0 C51.06058594 3.76792969 51.12117188 7.53585937 51.18359375 11.41796875 C51.2454073 15.06846068 51.30878502 18.71892234 51.37231445 22.36938477 C51.41561818 24.90581568 51.4572965 27.44227488 51.49731445 29.97875977 C51.55512727 33.62524949 51.61879038 37.27159739 51.68359375 40.91796875 C51.70030624 42.05147263 51.71701874 43.1849765 51.73423767 44.35282898 C51.7641555 45.94391228 51.7641555 45.94391228 51.79467773 47.56713867 C51.81799416 48.96279305 51.81799416 48.96279305 51.84178162 50.38664246 C52.00035763 53.00590705 52.42341168 55.44299778 53 58 C58.2673611 60.15191321 62.86831448 60.28237073 68.45753479 60.25396729 C69.87488376 60.25864726 69.87488376 60.25864726 71.32086605 60.26342177 C74.48293598 60.27139079 77.64481344 60.26508235 80.80688477 60.25878906 C83.07549146 60.26149939 85.34409727 60.26506055 87.61270142 60.26940918 C93.77159826 60.27852994 99.93042812 60.27499031 106.08932614 60.26865101 C112.53187825 60.26359005 118.9744246 60.26828267 125.41697693 60.27142334 C136.92833125 60.27529557 148.43965131 60.26907811 159.95100027 60.25890467 C170.38686358 60.24996727 180.82268241 60.25152331 191.25854492 60.26074219 C203.38136201 60.2714463 215.50414419 60.27542883 227.62696689 60.26951766 C234.0428165 60.26639739 240.45863546 60.26599025 246.87448311 60.27259064 C252.90484931 60.27836109 258.93513134 60.27437264 264.96548843 60.26280212 C267.18065819 60.26015406 269.39583501 60.26092312 271.61100197 60.26532745 C274.63058041 60.27077839 277.64988776 60.26395412 280.66944885 60.25396729 C281.54960098 60.25842873 282.42975311 60.26289017 283.33657652 60.26748681 C287.6135247 60.23997927 291.19018917 60.18610479 295 58 C297.22683196 54.65975207 297.2652219 53.51633856 297.31884766 49.6105957 C297.33871735 48.50968094 297.35858704 47.40876617 297.37905884 46.27449036 C297.39061005 45.08691635 297.40216125 43.89934235 297.4140625 42.67578125 C297.43342865 41.45924362 297.4527948 40.24270599 297.4727478 38.98930359 C297.53261021 35.09710743 297.57895618 31.20488181 297.625 27.3125 C297.66317359 24.67641927 297.70222495 22.04035109 297.7421875 19.40429688 C297.83997196 12.9362626 297.91948973 6.46836488 298 0 C314.83 0 331.66 0 349 0 C349 30.03 349 60.06 349 91 C233.83 91 118.66 91 0 91 C0 60.97 0 30.94 0 0 Z " fill="#F4F30F" transform="translate(198,449)"/>
<path d="M0 0 C13.48305063 -0.02264595 26.96608851 -0.04096995 40.4491539 -0.05181217 C46.71073873 -0.05701744 52.9723098 -0.06407208 59.23388672 -0.07543945 C65.28337997 -0.08635233 71.33286003 -0.09229456 77.38236237 -0.09487724 C79.68346616 -0.0967164 81.98456928 -0.10030769 84.28566742 -0.10573006 C87.52346828 -0.11305213 90.76121555 -0.11398627 93.99902344 -0.11352539 C94.93770767 -0.11712067 95.87639191 -0.12071594 96.84352112 -0.12442017 C111.64925796 -0.10180536 126.36335774 0.85843187 138.1015625 11.00390625 C147.2172643 20.58852275 149.53352638 32.93784159 149.41967773 45.83081055 C149.03362521 56.1847145 147.15612073 67.26329095 140.02734375 75.17578125 C126.01085344 87.78792186 108.8456981 87.55370154 91.125 87.25 C89.06902794 87.22989111 87.01303675 87.21164815 84.95703125 87.1953125 C79.97087291 87.15169535 74.98565335 87.08291351 70 87 C70.11509661 88.41750563 70.24253658 89.83401169 70.375 91.25 C70.47941406 92.43335938 70.47941406 92.43335938 70.5859375 93.640625 C71.030981 96.17653325 71.57774838 97.85285884 73 100 C78.34885216 102.99305257 78.34885216 102.99305257 91 103 C91 114.22 91 125.44 91 137 C60.97 137 30.94 137 0 137 C0 125.78 0 114.56 0 103 C3.96 102.01 7.92 101.02 12 100 C14.25556218 96.61665674 14.25632982 95.44027069 14.2746582 91.47460938 C14.28419022 90.34333618 14.29372223 89.21206299 14.30354309 88.04650879 C14.30263168 86.82459839 14.30172028 85.60268799 14.30078125 84.34375 C14.30506638 83.0899353 14.3093515 81.83612061 14.31376648 80.54431152 C14.31951407 77.89121516 14.32094009 75.23850733 14.31567383 72.58544922 C14.30987467 69.18561784 14.32682194 65.78633045 14.3500185 62.38658905 C14.36828937 59.14314656 14.36457083 55.89973472 14.36328125 52.65625 C14.372491 51.4343396 14.38170074 50.2124292 14.39118958 48.95349121 C14.38184639 47.25658142 14.38184639 47.25658142 14.37231445 45.52539062 C14.37294388 44.5285022 14.3735733 43.53161377 14.3742218 42.5045166 C13.9398347 39.59733777 13.30642278 38.75266247 11 37 C8.02050148 35.36620684 8.02050148 35.36620684 0 35 C0 23.45 0 11.9 0 0 Z " fill="#F3F20F" transform="translate(824,480)"/>
<path d="M0 0 C1.31929504 -0.01416962 2.63859009 -0.02833923 3.99786377 -0.04293823 C5.4582991 -0.03835066 6.91873313 -0.03333127 8.37916565 -0.02792358 C9.9184315 -0.03661878 11.45768868 -0.04698541 12.99693298 -0.05889893 C17.17674806 -0.08569187 21.35620162 -0.08683506 25.53608584 -0.08177233 C29.02524578 -0.07963378 32.51433243 -0.08939733 36.00347668 -0.09898317 C44.23471906 -0.12117788 52.46577891 -0.12204587 60.69703674 -0.10995483 C69.18943583 -0.09787206 77.68117247 -0.12250332 86.17345852 -0.16509497 C93.46447045 -0.20031759 100.75527143 -0.21233131 108.04636532 -0.20581949 C112.40114383 -0.2021919 116.75544978 -0.20748359 121.11015129 -0.23524857 C125.20542025 -0.26038219 129.299656 -0.25654213 133.39490891 -0.23042679 C134.89733159 -0.22569077 136.39982673 -0.23118133 137.90216637 -0.24767303 C149.1740112 -0.36248065 149.1740112 -0.36248065 152.61447334 1.78160477 C155.0736391 4.52379908 155.58878519 6.42120894 155.71730042 10.08389282 C154.37260023 14.19269893 152.91968308 15.79218448 149.59230042 18.52139282 C146.56754208 19.1450119 146.56754208 19.1450119 143.13354492 19.14285278 C141.82825836 19.15406158 140.5229718 19.16527039 139.1781311 19.17681885 C137.73862775 19.16390881 136.29912885 19.15049472 134.8596344 19.1366272 C133.33830649 19.14012946 131.81698225 19.14578923 130.29566956 19.15344238 C126.16955203 19.16768398 122.04410141 19.1506362 117.91804767 19.12715721 C113.59975611 19.10704535 109.28149216 19.11292788 104.96316528 19.11526489 C97.71256005 19.11521133 90.4622155 19.0954587 83.21168518 19.06338501 C74.82790871 19.02647865 66.44447355 19.01771144 58.06062645 19.02468252 C49.99548001 19.03098618 41.93045065 19.02023668 33.86532784 19.00071716 C30.43278905 18.99254046 27.00031009 18.9898341 23.56776237 18.9914093 C19.52686746 18.99228782 15.48629724 18.9780812 11.44548798 18.95218277 C9.96201463 18.94501695 8.47850676 18.94293936 6.99501991 18.94630051 C4.97134856 18.9500112 2.94767019 18.93343579 0.92407227 18.915802 C-0.20876977 18.91207329 -1.3416118 18.90834457 -2.50878239 18.90450287 C-5.74599438 18.47668505 -7.11251414 17.81118742 -9.40769958 15.52139282 C-10.61670967 11.89436256 -11.19430433 8.28121919 -10.40769958 4.52139282 C-7.2521535 0.45674938 -5.04892864 0.01806357 0 0 Z " fill="#050500" transform="translate(300.40769958496094,637.4786071777344)"/>
<path d="M0 0 C1.29542725 -0.0112088 2.59085449 -0.0224176 3.92553711 -0.03396606 C5.35400839 -0.02105598 6.78247519 -0.00764189 8.2109375 0.00622559 C9.72079085 0.00272325 11.2306405 -0.0029366 12.74047852 -0.0105896 C16.83567428 -0.02483143 20.93019809 -0.00778245 25.02532959 0.01569557 C29.31245669 0.0358108 33.59955606 0.02992467 37.88671875 0.02758789 C45.08605015 0.02764146 52.28511904 0.04739397 59.484375 0.07946777 C67.80564817 0.11636032 76.12657747 0.12514326 84.44792175 0.11817026 C92.45539998 0.1118632 100.46276039 0.1226233 108.47021484 0.14213562 C111.87680745 0.1503066 115.28333982 0.15301972 118.68994141 0.15144348 C122.70211299 0.15056399 126.71395822 0.16479777 130.7260437 0.19067001 C132.19780902 0.19782707 133.66960907 0.19991764 135.14138794 0.19655228 C137.15157256 0.19283282 139.16176409 0.20943934 141.171875 0.22705078 C142.2964209 0.2307795 143.4209668 0.23450821 144.57958984 0.23834991 C147.96417607 0.66966031 149.84399316 1.62794963 152.5859375 3.62145996 C154.48184203 6.12060684 154.59062616 7.40109301 154.5234375 10.55895996 C153.323429 14.47898772 151.73544556 16.02152883 148.5859375 18.62145996 C145.56397247 19.25066566 145.56397247 19.25066566 142.13391113 19.25637817 C140.83006973 19.27047729 139.52622833 19.28457642 138.18287659 19.29910278 C136.74496111 19.28938202 135.30704908 19.27914122 133.86914062 19.26843262 C132.34943087 19.27521045 130.82972934 19.28411452 129.31004333 19.29498291 C125.18802921 19.31776365 121.06664129 19.30894532 116.94461632 19.29308748 C112.62944231 19.280422 108.31432164 19.29217039 103.99914551 19.30001831 C96.75275046 19.30911301 89.50661026 19.29713178 82.26025391 19.27331543 C73.88433232 19.24610436 65.50901927 19.25491866 57.13311243 19.28244746 C49.93973411 19.30514274 42.74653891 19.3083366 35.55313635 19.29525411 C31.25769928 19.28746185 26.96254818 19.28641165 22.66712952 19.30293655 C18.62854106 19.31738834 14.59073657 19.30734758 10.55223274 19.27846527 C9.07078922 19.2718581 7.58927964 19.27374596 6.10786247 19.28477859 C4.08458702 19.29845657 2.06116726 19.27825613 0.03796387 19.25637817 C-1.09395638 19.25449305 -2.22587662 19.25260792 -3.39209747 19.25066566 C-7.3598584 18.42453506 -8.87118699 16.7006448 -11.4140625 13.62145996 C-12.078125 11.55895996 -12.078125 11.55895996 -12.0390625 9.62145996 C-12.05195313 8.98208496 -12.06484375 8.34270996 -12.078125 7.68395996 C-10.163233 1.73653069 -5.78973352 -0.00366836 0 0 Z " fill="#030300" transform="translate(301.4140625,671.3785400390625)"/>
<path d="M0 0 C9.9 0 19.8 0 30 0 C30 4.29 30 8.58 30 13 C29.01 13.33 28.02 13.66 27 14 C26.67 16.31 26.34 18.62 26 21 C27.31878578 20.23997083 28.6298684 19.46656347 29.9375 18.6875 C30.66839844 18.25824219 31.39929688 17.82898438 32.15234375 17.38671875 C34.29977412 16.04889746 34.29977412 16.04889746 35 13 C34.34 13 33.68 13 33 13 C33 8.71 33 4.42 33 0 C42.24 0 51.48 0 61 0 C61 4.29 61 8.58 61 13 C58.81901042 13.65104167 56.63802083 14.30208333 54.45703125 14.953125 C51.52571435 16.20208037 49.4061901 17.93144581 47 20 C48.93446312 22.43992395 50.87309647 24.8765018 52.8125 27.3125 C53.35970703 28.00279297 53.90691406 28.69308594 54.47070312 29.40429688 C55.00244141 30.07138672 55.53417969 30.73847656 56.08203125 31.42578125 C56.56905518 32.03848877 57.0560791 32.65119629 57.55786133 33.2824707 C59.97630104 36.16273537 61.35890102 37.78630034 65 39 C65 43.29 65 47.58 65 52 C54.44 52 43.88 52 33 52 C33 47.71 33 43.42 33 39 C33.66 38.67 34.32 38.34 35 38 C34.40072174 34.64404172 33.15377564 32.62198774 31 30 C29.68 30.33 28.36 30.66 27 31 C27 33.31 27 35.62 27 38 C28.485 38.495 28.485 38.495 30 39 C30 43.29 30 47.58 30 52 C20.1 52 10.2 52 0 52 C0 47.71 0 43.42 0 39 C2.475 38.505 2.475 38.505 5 38 C4.67 30.08 4.34 22.16 4 14 C2.68 13.67 1.36 13.34 0 13 C0 8.71 0 4.42 0 0 Z " fill="#020200" transform="translate(269,789)"/>
<path d="M0 0 C9.9 0 19.8 0 30 0 C30 4.29 30 8.58 30 13 C29.01 13.33 28.02 13.66 27 14 C26.67 16.31 26.34 18.62 26 21 C27.31878578 20.23997083 28.6298684 19.46656347 29.9375 18.6875 C30.66839844 18.25824219 31.39929688 17.82898438 32.15234375 17.38671875 C34.29977412 16.04889746 34.29977412 16.04889746 35 13 C34.34 13 33.68 13 33 13 C33 8.71 33 4.42 33 0 C42.24 0 51.48 0 61 0 C61 4.29 61 8.58 61 13 C58.81901042 13.65104167 56.63802083 14.30208333 54.45703125 14.953125 C51.52571435 16.20208037 49.4061901 17.93144581 47 20 C48.93446312 22.43992395 50.87309647 24.8765018 52.8125 27.3125 C53.35970703 28.00279297 53.90691406 28.69308594 54.47070312 29.40429688 C55.00244141 30.07138672 55.53417969 30.73847656 56.08203125 31.42578125 C56.56905518 32.03848877 57.0560791 32.65119629 57.55786133 33.2824707 C59.97630104 36.16273537 61.35890102 37.78630034 65 39 C65 43.29 65 47.58 65 52 C54.44 52 43.88 52 33 52 C33 47.71 33 43.42 33 39 C33.66 38.67 34.32 38.34 35 38 C34.40072174 34.64404172 33.15377564 32.62198774 31 30 C29.68 30.33 28.36 30.66 27 31 C27 33.31 27 35.62 27 38 C28.485 38.495 28.485 38.495 30 39 C30 43.29 30 47.58 30 52 C20.1 52 10.2 52 0 52 C0 47.71 0 43.42 0 39 C2.475 38.505 2.475 38.505 5 38 C4.67 30.08 4.34 22.16 4 14 C2.68 13.67 1.36 13.34 0 13 C0 8.71 0 4.42 0 0 Z " fill="#020200" transform="translate(177,789)"/>
<path d="M0 0 C6.28049148 -0.07438177 12.56072421 -0.12871203 18.84155273 -0.16479492 C20.97636382 -0.17984362 23.11114419 -0.20028736 25.24584961 -0.22631836 C28.32152914 -0.26287386 31.39679844 -0.2797659 34.47265625 -0.29296875 C35.42084732 -0.30845261 36.36903839 -0.32393646 37.34596252 -0.33988953 C44.16373616 -0.34160527 48.9676866 0.58969961 54.4375 4.9375 C56.93568135 9.83393544 56.84366726 14.62525771 56 20 C54.27621689 23.6948302 51.85600768 25.58150736 48.1875 27.375 C47.465625 27.58125 46.74375 27.7875 46 28 C46.763125 28.268125 47.52625 28.53625 48.3125 28.8125 C51.00523503 30.00231315 52.20761948 30.71878843 54 33 C54.51171875 35.48046875 54.51171875 35.48046875 54.6875 38.1875 C54.78611328 39.53908203 54.78611328 39.53908203 54.88671875 40.91796875 C54.94279297 41.94857422 54.94279297 41.94857422 55 43 C55.99 43.33 56.98 43.66 58 44 C58 40.37 58 36.74 58 33 C59.32 33 60.64 33 62 33 C62.86078544 45.89265303 62.86078544 45.89265303 59.6875 49.75 C54.7313745 53.89931437 49.56243428 53.38254624 43.33984375 53.36328125 C40.11388323 53.0123873 38.89463589 52.83512954 36.6875 50.5625 C35.8521875 49.2940625 35.8521875 49.2940625 35 48 C34.67 47.67 34.34 47.34 34 47 C33.76321284 44.30764224 33.57801975 41.63501844 33.4375 38.9375 C33.39431641 38.17888672 33.35113281 37.42027344 33.30664062 36.63867188 C33.20026367 34.75934562 33.09960066 32.87969756 33 31 C31.02 30.67 29.04 30.34 27 30 C27.33 32.64 27.66 35.28 28 38 C29.485 38.495 29.485 38.495 31 39 C31 43.29 31 47.58 31 52 C20.77 52 10.54 52 0 52 C0 47.71 0 43.42 0 39 C1.65 38.34 3.3 37.68 5 37 C5 29.41 5 21.82 5 14 C3.35 13.67 1.7 13.34 0 13 C0 8.71 0 4.42 0 0 Z " fill="#040400" transform="translate(490,789)"/>
<path d="M0 0 C7.59 0 15.18 0 23 0 C23 4.62 23 9.24 23 14 C21.68 14.33 20.36 14.66 19 15 C18.67 27.54 18.34 40.08 18 53 C1.8236036 54.97273127 1.8236036 54.97273127 -4 53 C-9.31737924 48.40115271 -12.01551392 41.76372507 -14.81689453 35.45263672 C-16.49991216 31.96365714 -18.64161035 29.06464537 -21 26 C-21 30.29 -21 34.58 -21 39 C-19.35 39.33 -17.7 39.66 -16 40 C-16 44.29 -16 48.58 -16 53 C-23.92 53 -31.84 53 -40 53 C-40 48.71 -40 44.42 -40 40 C-37.525 39.505 -37.525 39.505 -35 39 C-35.33 31.08 -35.66 23.16 -36 15 C-37.32 14.67 -38.64 14.34 -40 14 C-40 9.71 -40 5.42 -40 1 C-20.74399259 -1.64402876 -20.74399259 -1.64402876 -12 1 C-5.68567707 5.99575733 -2.250503 13.39228307 0.93212891 20.63989258 C2.00823362 23.18825856 2.00823362 23.18825856 4 26 C4 22.37 4 18.74 4 15 C2.68 14.67 1.36 14.34 0 14 C0 9.38 0 4.76 0 0 Z " fill="#060600" transform="translate(679,788)"/>
<path d="M0 0 C4.52483425 -0.27058809 9.03349333 -0.46828697 13.5625 -0.625 C14.83931641 -0.70878906 16.11613281 -0.79257812 17.43164062 -0.87890625 C26.70607305 -1.1198006 26.70607305 -1.1198006 30.27319336 1.96728516 C32.10508274 4.56027471 33.56458442 7.17038898 35 10 C35.94279912 11.50122023 36.89900136 12.99414261 37.87109375 14.4765625 C38.7294085 15.85761029 39.58493161 17.24039741 40.4375 18.625 C40.88287109 19.34300781 41.32824219 20.06101562 41.78710938 20.80078125 C42.86063236 22.53226993 43.93070737 24.26589565 45 26 C45 22.04 45 18.08 45 14 C43.68 13.67 42.36 13.34 41 13 C41 8.71 41 4.42 41 0 C48.26 0 55.52 0 63 0 C63 4.29 63 8.58 63 13 C61.35 13.33 59.7 13.66 58 14 C58 26.54 58 39.08 58 52 C42.94324814 54.47643945 42.94324814 54.47643945 37 52 C30.52424334 45.85009113 26.38109942 37.51446609 22.36254883 29.63549805 C20.99831177 26.87762727 20.99831177 26.87762727 19 24 C19 28.29 19 32.58 19 37 C20.65 37.66 22.3 38.32 24 39 C24 43.29 24 47.58 24 52 C16.08 52 8.16 52 0 52 C0 47.71 0 43.42 0 39 C1.65 38.34 3.3 37.68 5 37 C5.33 29.41 5.66 21.82 6 14 C3.03 13.505 3.03 13.505 0 13 C0 8.71 0 4.42 0 0 Z " fill="#010100" transform="translate(872,789)"/>
<path d="M0 0 C0 -0.99 0 -1.98 0 -3 C3.96 -3 7.92 -3 12 -3 C12 3.6 12 10.2 12 17 C8.04 17 4.08 17 0 17 C-0.4125 16.05125 -0.825 15.1025 -1.25 14.125 C-2.72315321 11.04957237 -2.72315321 11.04957237 -4.75 9.5625 C-8.21682777 8.69579306 -10.57838881 9.0046222 -14 10 C-18.45354766 15.1718618 -17.46946716 22.56829992 -17 29 C-16.37069099 33.89125674 -16.37069099 33.89125674 -14 38 C-11.32941149 38.14115161 -8.67567762 38.04247107 -6 38 C-6 36.35 -6 34.7 -6 33 C-7.32 32.34 -8.64 31.68 -10 31 C-10 27.37 -10 23.74 -10 20 C-0.43 20 9.14 20 19 20 C19 23.63 19 27.26 19 31 C17.35 31.66 15.7 32.32 14 33 C13.67 38.61 13.34 44.22 13 50 C9.37 50 5.74 50 2 50 C2 49.01 2 48.02 2 47 C1.5359375 47.28875 1.071875 47.5775 0.59375 47.875 C-7.48953242 52.21825622 -17.31879593 52.69426771 -26.078125 50.08203125 C-33.93480939 46.44772665 -38.30725849 40.88029838 -41.26953125 32.83984375 C-43.33431816 24.81257057 -42.80505933 16.75193305 -39.328125 9.22265625 C-35.01679215 2.00751392 -29.55392059 -1.39228615 -21.625 -3.6875 C-13.35850534 -4.67160651 -7.58575035 -3.54740726 0 0 Z " fill="#040400" transform="translate(1004,791)"/>
<path d="M0 0 C6.29880204 -0.07430529 12.59734739 -0.12867602 18.89648438 -0.16479492 C21.03813117 -0.17985641 23.17974724 -0.20030972 25.32128906 -0.22631836 C28.40437411 -0.26281728 31.48705038 -0.27975302 34.5703125 -0.29296875 C35.52366486 -0.30845261 36.47701721 -0.32393646 37.45925903 -0.33988953 C43.94414825 -0.34152136 48.10313833 0.7294868 53.3125 4.8125 C57.05980275 9.67011468 56.55379538 17.08625649 56 23 C54.39875543 26.76292473 52.45444189 28.84097382 49 31 C46.11734851 31.96088383 44.32337729 32.11670941 41.33203125 32.09765625 C40.43935547 32.09443359 39.54667969 32.09121094 38.62695312 32.08789062 C37.69818359 32.07951172 36.76941406 32.07113281 35.8125 32.0625 C34.40194336 32.05573242 34.40194336 32.05573242 32.96289062 32.04882812 C30.64186288 32.03704626 28.32096356 32.02059558 26 32 C26.66 33.98 27.32 35.96 28 38 C29.98 38.33 31.96 38.66 34 39 C34 43.29 34 47.58 34 52 C22.78 52 11.56 52 0 52 C0 47.71 0 43.42 0 39 C2.475 38.505 2.475 38.505 5 38 C4.67 30.08 4.34 22.16 4 14 C2.68 13.67 1.36 13.34 0 13 C0 8.71 0 4.42 0 0 Z " fill="#030300" transform="translate(407,789)"/>
<path d="M0 0 C18.81 0 37.62 0 57 0 C57 6.6 57 13.2 57 20 C53.37 20 49.74 20 46 20 C45.505 16.535 45.505 16.535 45 13 C43.02 12.34 41.04 11.68 39 11 C39.33 19.58 39.66 28.16 40 37 C41.65 37.66 43.3 38.32 45 39 C45 43.29 45 47.58 45 52 C34.11 52 23.22 52 12 52 C12 47.71 12 43.42 12 39 C13.65 38.34 15.3 37.68 17 37 C17.33 28.42 17.66 19.84 18 11 C16.02 11.66 14.04 12.32 12 13 C11.67 15.31 11.34 17.62 11 20 C7.37 20 3.74 20 0 20 C0 13.4 0 6.8 0 0 Z " fill="#030300" transform="translate(728,789)"/>
<path d="M0 0 C10.89 0 21.78 0 33 0 C33 4.62 33 9.24 33 14 C31.35 14.33 29.7 14.66 28 15 C27.67 22.92 27.34 30.84 27 39 C28.65 39.33 30.3 39.66 32 40 C32 44.29 32 48.58 32 53 C21.44 53 10.88 53 0 53 C0 48.71 0 44.42 0 40 C1.65 39.34 3.3 38.68 5 38 C5 30.41 5 22.82 5 15 C3.35 14.67 1.7 14.34 0 14 C0 9.38 0 4.76 0 0 Z " fill="#070700" transform="translate(812,788)"/>
<path d="M0 0 C10.89 0 21.78 0 33 0 C33 4.62 33 9.24 33 14 C31.35 14.33 29.7 14.66 28 15 C28 22.59 28 30.18 28 38 C29.65 38.66 31.3 39.32 33 40 C33 44.29 33 48.58 33 53 C22.44 53 11.88 53 1 53 C1 48.71 1 44.42 1 40 C3.475 39.505 3.475 39.505 6 39 C5.67 31.08 5.34 23.16 5 15 C3.35 14.67 1.7 14.34 0 14 C0 9.38 0 4.76 0 0 Z " fill="#070700" transform="translate(578,788)"/>
<path d="M0 0 C4.82343711 2.37461519 7.9299421 6.44038492 9.77734375 11.375 C10.69677572 17.54832895 10.51621695 23.18882105 6.77734375 28.375 C2.39086158 32.77185211 -1.07232766 35.49072737 -7.47265625 35.625 C-12.55951278 35.54242116 -16.83623244 34.57785274 -20.6953125 31.015625 C-25.42056361 25.67044299 -26.75787941 20.9339829 -26.6015625 13.94140625 C-25.77629268 8.35169211 -22.6109617 4.76330545 -18.72265625 0.875 C-12.80021312 -1.66318991 -6.21768461 -1.74838231 0 0 Z " fill="#030300" transform="translate(527.22265625,498.625)"/>
<path d="M0 0 C2.51625 -0.0825 5.0325 -0.165 7.625 -0.25 C8.79603271 -0.30462402 8.79603271 -0.30462402 9.99072266 -0.36035156 C15.08478719 -0.44053232 18.05276405 0.51505295 22 4 C24.96142167 9.2124445 24.65343278 15.18208648 24 21 C22.53528856 24.77361618 20.37714283 26.74857145 17 29 C15.09887695 29.22705078 15.09887695 29.22705078 12.98828125 29.1953125 C12.30548096 29.19031738 11.62268066 29.18532227 10.91918945 29.18017578 C10.05898193 29.16196777 9.19877441 29.14375977 8.3125 29.125 C4.1978125 29.063125 4.1978125 29.063125 0 29 C0 19.43 0 9.86 0 0 Z " fill="#050500" transform="translate(894,515)"/>
<path d="M0 0 C20.79 0 41.58 0 63 0 C63 4.62 63 9.24 63 14 C62.67 14 62.34 14 62 14 C62 9.71 62 5.42 62 1 C52.76 1 43.52 1 34 1 C34 5.29 34 9.58 34 14 C34.66 14 35.32 14 36 14 C35.875 15.75 35.875 15.75 35 18 C29.77777778 22 29.77777778 22 27 22 C27 19.69 27 17.38 27 15 C28.32 14.67 29.64 14.34 31 14 C31 9.71 31 5.42 31 1 C21.1 1 11.2 1 1 1 C1 5.29 1 9.58 1 14 C0.67 14 0.34 14 0 14 C0 9.38 0 4.76 0 0 Z " fill="#B3B20C" transform="translate(268,788)"/>
<path d="M0 0 C20.79 0 41.58 0 63 0 C63 4.62 63 9.24 63 14 C62.67 14 62.34 14 62 14 C62 9.71 62 5.42 62 1 C52.76 1 43.52 1 34 1 C34 5.29 34 9.58 34 14 C34.66 14 35.32 14 36 14 C35.875 15.75 35.875 15.75 35 18 C29.77777778 22 29.77777778 22 27 22 C27 19.69 27 17.38 27 15 C28.32 14.67 29.64 14.34 31 14 C31 9.71 31 5.42 31 1 C21.1 1 11.2 1 1 1 C1 5.29 1 9.58 1 14 C0.67 14 0.34 14 0 14 C0 9.38 0 4.76 0 0 Z " fill="#B3B20C" transform="translate(176,788)"/>
<path d="M0 0 C3.33717549 1.3809002 5.22301036 2.8201238 7 6 C6.6875 8.25 6.6875 8.25 6 10 C5.34 10 4.68 10 4 10 C4 14.29 4 18.58 4 23 C3.01 23 2.02 23 1 23 C1 18.71 1 14.42 1 10 C-0.32 9.67 -1.64 9.34 -3 9 C-3.1875 5.625 -3.1875 5.625 -3 2 C-2.01 1.34 -1.02 0.68 0 0 Z " fill="#DBDA0E" transform="translate(298,818)"/>
<path d="M0 0 C3.33717549 1.3809002 5.22301036 2.8201238 7 6 C6.6875 8.25 6.6875 8.25 6 10 C5.34 10 4.68 10 4 10 C4 14.29 4 18.58 4 23 C3.01 23 2.02 23 1 23 C1 18.71 1 14.42 1 10 C-0.32 9.67 -1.64 9.34 -3 9 C-3.1875 5.625 -3.1875 5.625 -3 2 C-2.01 1.34 -1.02 0.68 0 0 Z " fill="#DBDA0E" transform="translate(206,818)"/>
<path d="M0 0 C6.75 -0.125 6.75 -0.125 9 1 C9.1953125 7.0546875 9.1953125 7.0546875 9 9 C7 11 7 11 3.375 11.125 C2.26125 11.08375 1.1475 11.0425 0 11 C0 7.37 0 3.74 0 0 Z " fill="#EDEC0F" transform="translate(433,802)"/>
<path d="M0 0 C2.33294775 -0.04241723 4.66702567 -0.04092937 7 0 C8.89488952 1.89488952 8.18019112 4.57139146 8.23046875 7.08984375 C8 9 8 9 6 11 C2.875 11.125 2.875 11.125 0 11 C0 7.37 0 3.74 0 0 Z " fill="#ECEB0F" transform="translate(517,802)"/>
<path d="M0 0 C2.9375 0.375 2.9375 0.375 6 1 C7.32229189 3.64458379 7.09677194 5.67761301 7.0625 8.625 C7.05347656 9.62789062 7.04445313 10.63078125 7.03515625 11.6640625 C7.02355469 12.43492187 7.01195312 13.20578125 7 14 C6.67 14 6.34 14 6 14 C5.67 16.64 5.34 19.28 5 22 C4.67 22 4.34 22 4 22 C4 17.71 4 13.42 4 9 C2.68 8.67 1.36 8.34 0 8 C0 5.36 0 2.72 0 0 Z " fill="#D0CF0D" transform="translate(517,819)"/>
</svg>
