<?xml version="1.0" encoding="utf-8"?>
<!-- Generator: Adobe Illustrator 24.0.1, SVG Export Plug-In . SVG Version: 6.00 Build 0)  -->
<svg version="1.1" id="Layer_1" xmlns="http://www.w3.org/2000/svg" xmlns:xlink="http://www.w3.org/1999/xlink" x="0px" y="0px"
	 viewBox="0 0 2341.9 582.2" style="enable-background:new 0 0 2341.9 582.2;" xml:space="preserve">
<style type="text/css">
	.st0{fill-rule:evenodd;clip-rule:evenodd;fill:#005CB9;}
	.st1{fill:#005CB9;}
</style>
<g>
	<g>
		<path class="st0" d="M422.3,340.1c-12.7,8.5-44.5,55.1-154.6,48.8c-114.4-8.5-150.4-93.3-228.7-70c36-17,74.1-14.9,114.3,4.2
			C257.1,365.6,327,401.6,422.3,340.1 M435,310.4c-63.5,33.9-154.6,23.3-260.5-10.6c-48.7-17-88.9-33.9-148.2-21.2
			c27.5-16.9,61.4-23.3,99.5-23.3c78.4,4.2,116.5,36,177.9,53C371.5,327.4,405.4,316.8,435,310.4 M299.5,85.7
			c-16.9-21.2-110.1-21.2-105.9,59.4c-4.2,78.4,116.4,78.4,144,95.4c10.6,8.5,23.3,33.9,0,33.9c-36-6.3-69.9-25.4-103.8-40.3
			c-78.4-46.6-167.3-36-213.9-4.2c4.3-123,99.5-207.8,211.8-209.9C422.3,24.2,471,206.5,439.3,295.6c6.3-21.2,4.2-78.4-99.6-95.4
			c-33.9-12.7-88.9-17-103.7-40.3c-6.4-25.5,16.9-27.6,38.1-19.1c2.1,2.1,4.2,2.1,6.4,2.1c25.4,0,19.1-19.1,10.6-23.3
			c-6.4-4.2-1.9-8.5,4.2-4.2C313.1,121.6,312.2,100.5,299.5,85.7 M310.1,117.5c-6.3,2.1-10.6,2.1-10.6,2.1c6.4,8.5,4.2,17-2.1,25.5
			c19.1,6.3,40.2,6.3,61.4,2.1C339.7,143,320.7,138.7,310.1,117.5 M375.7,397.4c0,0-99.5,40.3-163,14.8
			c-76.2-29.7-86.8-67.8-152.5-55.1c33.9,50.9,105.9,91.2,165.2,91.2C322.8,448.2,358.8,407.9,375.7,397.4"/>
		<path class="st0" d="M1816.3,394.7h-107.9c-50.2,0-91-40.7-91-91V73.5h97.1v197.8c0,17.7,14.4,32.1,32.1,32.1h69.7V394.7z
			 M1023.6,394.7l18.9-49.7l131.3-85.2l-52.4,134.9H1023.6z M1044.3,340.3l45.6-119.6l92.4,13.4L1044.3,340.3z M1090.3,219.8
			l26.1-68.5l65.1,65.5L1090.3,219.8z M1116.9,150l29.2-76.5h56.4l-8,130.4L1116.9,150z M1203.9,73.5h49.2l31.8,79.6l-74.4,50.7
			L1203.9,73.5z M1285.3,154l25.8,64.7l-87.6-1.9L1285.3,154z M1316.8,232.8l42.5,106.4l-136.6-105.1L1316.8,232.8z M1361.3,344.2
			l20.2,50.5h-97.9l-52.4-134.9L1361.3,344.2z M2244.4,302.5c2.9,6.7,7.2,12,12.9,16c5.7,3.8,11.2,6.2,16.6,7.2
			c5.4,1.1,11,1.6,16.6,1.6h31.4v67.5h-52.1c-31.2,0-58-11.8-80.4-35.5c-22.2-23.8-33.3-51.8-33.3-83.8c0-35.2,11.8-64.7,35.5-88.5
			c23.8-24.1,54.3-36.1,91.3-36.1h37.7v67.8h-36.4c-3.1,0-7.2,0.7-12.2,2.2c-4.8,1.5-9.7,3.9-14.8,7.2c-4.8,3.4-8.8,8.3-11.9,14.8
			h75.7v59.6H2244.4z M2011,289.9v104.8h-79.7V182.9c0-9.2,2.7-17,8.2-23.5c5.4-6.5,11.7-10.8,18.8-12.8c7.3-2.1,13.2-3.1,17.6-3.1
			c9.2,0,17.6,2.3,25.1,6.9c7.7,4.6,13.8,11.2,18.2,19.8l41.1,77.8v-97h78.1V363c0,9-2.6,16.9-7.8,23.5
			c-5.2,6.7-11.1,10.5-17.6,11.3c-6.5,1-11.7,1.6-15.7,1.6c-8.6,0-16.2-1.7-22.9-5c-6.7-3.4-11.9-8.6-15.7-15.7L2011,289.9z
			 M1834,150.9h79.4v243.9H1834V150.9z M1469.4,394.7h-79.1V363V231.7l78.9-1.1c-0.1,0.7-0.1,1.4-0.1,2.2c0,1.2,0.1,2.2,0.3,2.8
			V394.7z M1390.7,220.4c1.9-20.3,10.4-37.7,25.6-51.9c17.4-16.3,39.3-24.5,65.9-24.5c24.9,0,46.6,6.9,65,20.7
			c18.4,13.8,27.6,32.4,27.6,55.6c0,1.4,0,2.7-0.1,4.1l-74.5-1.6c-0.8-1.5-1.9-2.8-3.2-4.1c-3.1-3.4-7-5-11.6-5
			c-4.4,0-8.2,2.1-11.6,6.3c-0.6,0.7-1.1,1.5-1.5,2.2L1390.7,220.4z M1574.2,229.1c-0.8,6.2-2.5,12.1-5,17.8
			c-3.8,8.3-8.5,14.8-14.1,19.4l-3.8,2.8l5,2.5c2.7,1.3,5,2.9,6.9,5c2.1,1.9,4.4,4.5,6.9,7.9c2.7,4.2,4.6,8.7,5.7,13.5
			c1.3,4.6,1.9,9.8,1.9,15.7V395l-79.1,0v-74.7c0-1.7-0.5-3.1-1.6-4.4c-0.8-1.5-2.4-2.9-4.7-4.4c-2.1-1.7-5.2-2.5-9.4-2.5l-4.4-0.3
			v-61.5h6.9c4.6,0,8.5-1.6,11.6-4.7c3.4-3.3,5-7.5,5-12.2L1574.2,229.1z M887.3,289.9v104.8h-79.8V182.9c0-9.2,2.8-17,8.2-23.5
			c5.5-6.5,11.7-10.7,18.8-12.8c7.3-2.1,13.2-3.1,17.6-3.1c9.2,0,17.6,2.3,25.1,6.9c7.7,4.6,13.8,11.2,18.2,19.8l41.1,77.8v-97h78.1
			V363c0,9-2.6,16.9-7.8,23.5c-5.2,6.7-11.1,10.5-17.6,11.3c-6.5,1.1-11.7,1.6-15.7,1.6c-8.6,0-16.3-1.7-22.9-5
			c-6.7-3.4-11.9-8.6-15.7-15.7L887.3,289.9z M710.4,150.8h79.4v243.9h-79.4V150.8z M569,282.7c-16.1-13-27.1-24.6-33-34.8
			c-5.6-10.2-8.5-20.8-8.5-31.7c0-19.9,7.4-35.7,22.3-47.4c15.1-11.9,34.3-17.9,57.7-17.9h85v67.8h-67.5c-1.7,0-3.4,0.6-5.3,1.9
			c-1.7,1-2.7,2.4-3.1,4.1c-0.8,3.3,0.1,6.1,2.8,8.2l30.8,24.4c14,11.1,24.6,22,31.7,32.6c7.1,10.7,10.7,23.6,10.7,38.6
			c0,18.4-6.7,34.1-20.1,47.1c-13.2,12.8-31,19.2-53.7,19.2h-90.4v-67.5h62.8c2.7,0,5.5-1.1,8.5-3.1c2.9-2.3,4.6-4.6,5-6.9
			c0.4-3.4,0-5.8-1.3-7.2c-1-1.7-6-5.6-14.7-11.9L569,282.7z"/>
	</g>
	<g>
		<path class="st1" d="M619.5,560.6l-14-58l-14,58h-25.2L539.8,468h26.7l14,61.8l15.8-61.8h18.3l15.8,61.8l13.9-61.8h26.9
			l-26.5,92.6H619.5z"/>
		<path class="st1" d="M739.1,560.6l-15.5-31.1h-12.2v31.1h-23.8V468h46.3c20.5,0,32.1,13.6,32.1,30.8c0,16.1-9.8,24.7-18.4,27.8
			l18.8,34H739.1z M741.8,498.7c0-6.2-5.3-9.9-11.5-9.9h-18.8v19.8h18.8C736.5,508.7,741.8,505.2,741.8,498.7z"/>
		<path class="st1" d="M788.3,560.6V468h23.8v92.6H788.3z"/>
		<path class="st1" d="M858.4,560.6v-71.7h-25.9V468H908v20.8h-25.8v71.7H858.4z"/>
		<path class="st1" d="M928.5,560.6V468h23.8v92.6H928.5z"/>
		<path class="st1" d="M1040.8,560.6l-39.1-53.6v53.6H978V468h24.5l37.4,50.9V468h24v92.6H1040.8z"/>
		<path class="st1" d="M1084.9,514.4c0-29.4,22.4-47.9,50-47.9c20.6,0,33.1,11,39.5,22.5l-19.9,10.4c-3.5-6.1-10.5-11.8-19.5-11.8
			c-15.1,0-25.8,11.7-25.8,26.8s10.7,26.8,25.8,26.8c6.8,0,13.7-2.8,17-5.6v-7.2h-20.8v-21h44.6v36.8c-10,11-23.4,18-40.9,18
			C1107.3,562.2,1084.9,543.8,1084.9,514.4z"/>
		<path class="st1" d="M1268.6,560.6v-37.3l-35-55.2h26.9l20.1,34.1l19.8-34.1h27l-34.9,55.2v37.3H1268.6z"/>
		<path class="st1" d="M1333,514.4c0-28.2,21.2-47.9,49.5-47.9s49.3,19.7,49.3,47.9s-21.1,47.9-49.3,47.9S1333,542.5,1333,514.4z
			 M1407.5,514.4c0-15.1-9.8-26.8-25.1-26.8c-15.4,0-25.2,11.7-25.2,26.8c0,15,9.8,26.8,25.2,26.8
			C1397.7,541.1,1407.5,529.3,1407.5,514.4z"/>
		<path class="st1" d="M1452.9,523.1V468h24.2v54.3c0,11,6.5,18.9,19.5,18.9c12.7,0,19.4-7.9,19.4-18.9V468h24.1v55
			c0,23-14,39.3-43.5,39.3C1466.9,562.2,1452.9,545.9,1452.9,523.1z"/>
		<path class="st1" d="M1617.4,560.6l-15.5-31.1h-12.2v31.1h-23.8V468h46.3c20.5,0,32.1,13.6,32.1,30.8c0,16.1-9.8,24.7-18.4,27.8
			l18.8,34H1617.4z M1620,498.7c0-6.2-5.3-9.9-11.5-9.9h-18.8v19.8h18.8C1614.7,508.7,1620,505.2,1620,498.7z"/>
		<path class="st1" d="M1711,560.6V468h38.8c29.1,0,50,17.5,50,46.2c0,28.7-20.9,46.3-49.9,46.3H1711z M1775.4,514.2
			c0-14.3-8.6-25.4-25.5-25.4h-15.1v50.9h15C1766,539.8,1775.4,528,1775.4,514.2z"/>
		<path class="st1" d="M1872.3,560.6l-15.5-31.1h-12.2v31.1h-23.8V468h46.3c20.5,0,32.1,13.6,32.1,30.8c0,16.1-9.8,24.7-18.4,27.8
			l18.8,34H1872.3z M1874.9,498.7c0-6.2-5.3-9.9-11.5-9.9h-18.8v19.8h18.8C1869.6,508.7,1874.9,505.2,1874.9,498.7z"/>
		<path class="st1" d="M1921.3,560.6V468h67.7v20.8h-43.9v14.4h42.9v20.8h-42.9v15.7h43.9v20.8H1921.3z"/>
		<path class="st1" d="M2074.6,560.6l-4.6-13.3h-36.4l-4.6,13.3h-27l34.8-92.6h29.9l34.9,92.6H2074.6z M2051.8,491.6l-11.8,34.8
			h23.5L2051.8,491.6z"/>
		<path class="st1" d="M2198.6,560.6v-60.2l-23.4,60.2h-10.5l-23.3-60.2v60.2h-23.8V468h33.1l19.3,50.2l19.4-50.2h33.1v92.6H2198.6z
			"/>
		<path class="st1" d="M2241.4,547.5l12.6-17.9c6.6,6.7,16.9,12.2,29.5,12.2c8.2,0,13.2-3.2,13.2-7.6c0-12.6-52.4-2.5-52.4-38.2
			c0-15.5,13.2-29.4,36.8-29.4c14.8,0,27.7,4.4,37.5,12.9l-13,17.1c-7.8-6.4-17.9-9.6-27-9.6c-6.9,0-10,2.8-10,6.7
			c0,11.8,52.2,3.2,52.2,37.6c0,18.6-13.7,30.9-38.5,30.9C2263.7,562.2,2250.7,556.4,2241.4,547.5z"/>
	</g>
</g>
</svg>
